<svg id="visual" viewBox="0 0 960 540" width="960" height="540" xmlns="http://www.w3.org/2000/svg" xmlns:xlink="http://www.w3.org/1999/xlink" version="1.1"><rect x="0" y="0" width="960" height="540" fill="#ebfeff"></rect><defs><linearGradient id="grad1_0" x1="43.8%" y1="0%" x2="100%" y2="100%"><stop offset="14.444444444444446%" stop-color="#aef2f6" stop-opacity="1"></stop><stop offset="85.55555555555554%" stop-color="#aef2f6" stop-opacity="1"></stop></linearGradient></defs><defs><linearGradient id="grad1_1" x1="43.8%" y1="0%" x2="100%" y2="100%"><stop offset="14.444444444444446%" stop-color="#aef2f6" stop-opacity="1"></stop><stop offset="85.55555555555554%" stop-color="#ebfeff" stop-opacity="1"></stop></linearGradient></defs><defs><linearGradient id="grad2_0" x1="0%" y1="0%" x2="56.3%" y2="100%"><stop offset="14.444444444444446%" stop-color="#aef2f6" stop-opacity="1"></stop><stop offset="85.55555555555554%" stop-color="#aef2f6" stop-opacity="1"></stop></linearGradient></defs><defs><linearGradient id="grad2_1" x1="0%" y1="0%" x2="56.3%" y2="100%"><stop offset="14.444444444444446%" stop-color="#ebfeff" stop-opacity="1"></stop><stop offset="85.55555555555554%" stop-color="#aef2f6" stop-opacity="1"></stop></linearGradient></defs><g transform="translate(960, 0)"><path d="M0 486C-55.6 452.4 -111.2 418.7 -161.9 390.8C-212.5 362.9 -258.2 340.7 -309.7 309.7C-361.2 278.8 -418.6 239.1 -449 186C-479.4 132.9 -482.7 66.5 -486 0L0 0Z" fill="#cef8fa"></path><path d="M0 243C-27.8 226.2 -55.6 209.4 -80.9 195.4C-106.3 181.4 -129.1 170.3 -154.9 154.9C-180.6 139.4 -209.3 119.5 -224.5 93C-239.7 66.5 -241.3 33.2 -243 0L0 0Z" fill="#aef2f6"></path></g><g transform="translate(0, 540)"><path d="M0 -486C49 -448.8 98 -411.7 163.8 -395.4C229.6 -379.2 312.2 -383.9 343.7 -343.7C375.1 -303.4 355.3 -218.2 370.5 -153.5C385.7 -88.7 435.8 -44.3 486 0L0 0Z" fill="#cef8fa"></path><path d="M0 -243C24.5 -224.4 49 -205.8 81.9 -197.7C114.8 -189.6 156.1 -191.9 171.8 -171.8C187.5 -151.7 177.6 -109.1 185.2 -76.7C192.8 -44.3 217.9 -22.2 243 0L0 0Z" fill="#aef2f6"></path></g></svg>